<svg width="100" height="100" viewBox="0 0 100 100" fill="none" xmlns="http://www.w3.org/2000/svg">
<path fill-rule="evenodd" clip-rule="evenodd" d="M11.7813 3.19375C12.8749 2.10181 14.188 1.25474 15.6337 0.70869C17.0795 0.162638 18.6247 -0.0699307 20.1671 0.0263956C21.7095 0.122722 23.2139 0.545744 24.5804 1.26743C25.947 1.98911 27.1445 2.99298 28.0938 4.2125L39.3125 18.625C41.3688 21.2688 42.0938 24.7125 41.2813 27.9625L37.8625 41.65C37.687 42.359 37.6972 43.1013 37.892 43.8052C38.0869 44.5091 38.4599 45.151 38.975 45.6688L54.3313 61.025C54.8497 61.5412 55.4926 61.9148 56.1977 62.1097C56.9028 62.3046 57.6463 62.3142 58.3563 62.1375L72.0375 58.7188C73.6415 58.3201 75.315 58.2901 76.9323 58.6311C78.5496 58.9721 80.0685 59.6752 81.375 60.6875L95.7875 71.9C100.969 75.9313 101.444 83.5875 96.8063 88.2188L90.3438 94.6813C85.7188 99.3063 78.8063 101.337 72.3625 99.0687C55.8667 93.2724 40.8909 83.8297 28.55 71.4437C16.1648 59.1047 6.72221 44.1311 0.925014 27.6375C-1.33749 21.2 0.693764 14.2813 5.31876 9.65625L11.7813 3.19375Z" fill="black"/>
</svg>
